<svg width="24" height="24" viewBox="0 0 24 24" fill="none" xmlns="http://www.w3.org/2000/svg">
<path d="M23.4985 3.74768C23.2225 2.27245 22.4093 1.11077 21.3766 0.716516C19.505 0 12 0 12 0C12 0 4.495 0 2.62335 0.716516C1.59076 1.11077 0.777485 2.27245 0.501509 3.74768C0 6.42141 0 12 0 12C0 12 0 17.5785 0.501509 20.2525C0.777485 21.7275 1.59076 22.8892 2.62335 23.2836C4.495 24 12 24 12 24C12 24 19.505 24 21.3766 23.2836C22.4093 22.8892 23.2225 21.7275 23.4985 20.2525C24 17.5785 24 12 24 12C24 12 24 6.42141 23.4985 3.74768Z" fill="#ED1D24"/>
<path d="M9.54541 17.0649L15.8181 12.0003L9.54541 6.9351V17.0649Z" fill="white"/>
</svg>
