<svg xmlns="http://www.w3.org/2000/svg" width="48" height="48" viewBox="0 0 48 48">
    <g data-name="그룹 5522">
        <path data-name="패스 9403" d="M24 3A21 21 0 1 1 3 24 21.024 21.024 0 0 1 24 3m0-2a23 23 0 1 0 23 23A23 23 0 0 0 24 1" style="fill:#fff"/>
        <path data-name="패스 9404" d="M19.259 18.835c0 2.027-1.168 3.671-2.608 3.671s-2.609-1.644-2.609-3.671 1.168-3.671 2.609-3.671 2.608 1.644 2.608 3.671" style="fill:#fff"/>
        <path data-name="패스 9405" d="M33.958 18.835c0 2.027-1.168 3.671-2.608 3.671s-2.609-1.644-2.609-3.671 1.168-3.671 2.609-3.671 2.608 1.644 2.608 3.671" style="fill:#fff"/>
        <path data-name="패스 9406" d="M14.24 31.634a12.265 12.265 0 0 0 19.52 0" style="fill:none;stroke:#fff;stroke-linecap:round;stroke-linejoin:round;stroke-width:2px"/>
    </g>
</svg>
