<svg xmlns="http://www.w3.org/2000/svg" width="48" height="48" viewBox="0 0 48 48">
    <g data-name="그룹 5528">
        <path data-name="패스 9419" d="M23 2A21 21 0 1 1 2 23 21.024 21.024 0 0 1 23 2m0-2a23 23 0 1 0 23 23A23 23 0 0 0 23 0" transform="translate(1 1)" style="fill:#fff"/>
        <path data-name="패스 9420" d="M13.133 26.667a10.07 10.07 0 1 0 20.14 0z" transform="translate(1 1)" style="fill:none;stroke:#fff;stroke-linecap:round;stroke-linejoin:round;stroke-width:2px"/>
        <path data-name="패스 9421" d="M10.207 18.722a4.512 4.512 0 0 1 9.024 0" transform="translate(1 1)" style="fill:none;stroke:#fff;stroke-linecap:round;stroke-linejoin:round;stroke-width:2px"/>
        <path data-name="패스 9422" d="M27.175 18.722a4.512 4.512 0 0 1 9.024 0" transform="translate(1 1)" style="fill:none;stroke:#fff;stroke-linecap:round;stroke-linejoin:round;stroke-width:2px"/>
    </g>
</svg>
