<svg xmlns="http://www.w3.org/2000/svg" width="48" height="48" viewBox="0 0 48 48">
    <g data-name="그룹 5540">
        <path data-name="패스 9437" d="M23 2A21 21 0 1 1 2 23 21.024 21.024 0 0 1 23 2m0-2a23 23 0 1 0 23 23A23 23 0 0 0 23 0" transform="translate(1 1)" style="fill:#fff"/>
        <path data-name="패스 9438" d="M32.664 33.294a12.124 12.124 0 0 0-9.71-5.066 12.121 12.121 0 0 0-9.71 5.066" transform="translate(1 1)" style="fill:none;stroke:#fff;stroke-linecap:round;stroke-linejoin:round;stroke-width:2px"/>
        <path data-name="패스 9439" d="M18.282 21.173c0 2.027-1.168 3.671-2.608 3.671s-2.609-1.644-2.609-3.671 1.168-3.673 2.609-3.673 2.608 1.644 2.608 3.671" transform="translate(1 1)" style="fill:#fff"/>
        <path data-name="선 276" transform="translate(28.626 14.097)" style="fill:none;stroke:#fff;stroke-linecap:round;stroke-linejoin:round;stroke-width:2px" d="M0 1.569 4.218 0"/>
        <path data-name="패스 9440" d="M27.626 21.173c0 2.027 1.168 3.671 2.608 3.671s2.609-1.644 2.609-3.671-1.168-3.673-2.609-3.673-2.608 1.644-2.608 3.671" transform="translate(1 1)" style="fill:#fff"/>
        <path data-name="선 277" transform="translate(15.064 14.097)" style="fill:none;stroke:#fff;stroke-linecap:round;stroke-linejoin:round;stroke-width:2px" d="M4.218 1.569 0 0"/>
    </g>
</svg>
