<svg width="150" height="24" viewBox="0 0 150 24" fill="none" xmlns="http://www.w3.org/2000/svg">
<g clip-path="url(#clip0_6_490)">
<path d="M87.0316 21.2863C87.0316 21.4802 87.1093 21.5859 87.2906 21.5859C87.4201 21.5859 87.5237 21.5507 87.6533 21.4978L134.381 0.828194C135.21 0.45815 135.961 0.264317 137.075 0.264317H147.358C148.938 0.264317 150 0.986784 150 2.06167V15.4009C150 17.0044 149.482 17.9383 147.358 18.8018L134.899 23.8943C134.744 23.9648 134.588 24 134.485 24C134.329 24 134.2 23.9295 134.2 23.63V8.05286C134.2 7.87665 134.122 7.7533 133.941 7.7533C133.811 7.7533 133.707 7.78855 133.578 7.84141L99.4129 22.9427C98.4545 23.3656 97.6774 23.489 96.7968 23.489H74.1323C72.5522 23.489 71.4902 22.7665 71.4902 21.6916V2.48458C71.4902 2.34361 71.3866 2.22026 71.2312 2.22026C71.1017 2.22026 70.9981 2.25551 70.8686 2.30837L48.3336 11.5242C48.1005 11.6123 48.0487 11.7004 48.0487 11.7709C48.0487 11.8414 48.0746 11.8943 48.2559 12L64.3412 22.9427C64.5484 23.0837 64.7038 23.2071 64.7038 23.3128C64.7038 23.4361 64.4707 23.5066 64.1858 23.5066H49.6287C48.489 23.5066 47.6084 23.3833 46.9867 22.9604L37.2215 16.3172C37.1179 16.2467 37.0402 16.2115 36.9366 16.2115C36.8589 16.2115 36.7294 16.2467 36.6258 16.2819L20.3074 22.9604C19.3231 23.3656 18.6496 23.489 17.6653 23.489H2.64203C1.06199 23.489 0 22.7665 0 21.6916V8.59912C0 6.97797 0.518045 6.06167 2.64203 5.19824L15.1787 0.0704846C15.3082 0.0176211 15.4118 0 15.5155 0C15.6968 0 15.8004 0.140969 15.8004 0.422908V17.9383C15.8004 18.1145 15.8781 18.2026 16.0594 18.2026C16.163 18.2026 16.2925 18.1498 16.422 18.0969L58.7722 0.77533C59.7824 0.370044 60.4041 0.246696 61.5697 0.246696H84.3637C85.9437 0.246696 87.0057 0.969163 87.0057 2.04405L87.0316 21.2863Z" fill="black"/>
</g>
<defs>
<clipPath id="clip0_6_490">
<rect width="150" height="24" fill="white"/>
</clipPath>
</defs>
</svg>
