<svg data-name="그룹 2514" xmlns="http://www.w3.org/2000/svg" width="32" height="32" viewBox="0 0 32 32">
    <path data-name="패스 556" d="m1519.52 2126.93-5.49 5.45-.94-.94 5.48-5.44h-5.05v-1.33h5.33a2 2 0 0 1 1.8 1.13 1.983 1.983 0 0 1 .2.87v5.33h-1.33z" transform="translate(-1493 -2120)" style="fill:#697278;fill-rule:evenodd"/>
    <path data-name="패스 557" d="m1506.25 2145.41-7.22-7.04a8.044 8.044 0 0 1 0-11.58 2.439 2.439 0 0 1 3.4 0l2.27 2.21a2.355 2.355 0 0 1 0 3.39 1.534 1.534 0 0 0 0 2.2l5.24 5.11a1.624 1.624 0 0 0 2.26 0 2.488 2.488 0 0 1 3.47 0l2.45 2.39a2.307 2.307 0 0 1 0 3.32 8.557 8.557 0 0 1-11.87 0zm-6.27-7.98a6.745 6.745 0 0 1 0-9.71 1.075 1.075 0 0 1 1.49 0l2.27 2.21a1.052 1.052 0 0 1 0 1.53 2.82 2.82 0 0 0 0 4.06l5.24 5.11a3.007 3.007 0 0 0 4.17 0 1.123 1.123 0 0 1 1.56 0l2.45 2.39a1 1 0 0 1 0 1.46 7.174 7.174 0 0 1-9.96 0z" transform="translate(-1493 -2120)" style="fill:#697278;fill-rule:evenodd"/>
</svg>
