<svg id="Maintenance_48" xmlns="http://www.w3.org/2000/svg" width="48" height="48" viewBox="0 0 48 48">
  <defs>
    <style>
      .cls-1 {
        fill: red;
        opacity: 0;
      }

      .cls-2 {
        fill: #ffffff;
        fill-rule: evenodd;
      }
    </style>
  </defs>
  <rect id="Area" class="cls-1" width="48" height="48"/>
  <g id="그룹_947" data-name="그룹 947" transform="translate(5.351 7.005)">
    <path id="패스_2322" data-name="패스 2322" class="cls-2" d="M330.731,1359.06l-8.226,8.175-1.419-1.41,8.219-8.16h-7.572v-1.995h8a3,3,0,0,1,2.7,1.695h0a3.078,3.078,0,0,1,.293,1.305v7.995h-2Z" transform="translate(-296.308 -1355.67)"/>
    <path id="패스_2323" data-name="패스 2323" class="cls-2" d="M319.087,1386.065l-10.833-10.56a12.073,12.073,0,0,1,0-17.37,3.666,3.666,0,0,1,5.106,0l3.405,3.315a3.535,3.535,0,0,1,0,5.085,2.293,2.293,0,0,0,0,3.3l7.86,7.665a2.429,2.429,0,0,0,3.384,0,3.735,3.735,0,0,1,5.208,0l3.677,3.585a3.46,3.46,0,0,1,0,4.98A12.838,12.838,0,0,1,319.087,1386.065Zm-9.4-11.97a10.115,10.115,0,0,1,0-14.565,1.62,1.62,0,0,1,2.241,0l3.4,3.315a1.6,1.6,0,0,1,0,2.295,4.23,4.23,0,0,0,0,6.09l7.86,7.665a4.5,4.5,0,0,0,6.249,0,1.688,1.688,0,0,1,2.343,0l3.677,3.585a1.523,1.523,0,0,1,0,2.19,10.763,10.763,0,0,1-14.942,0Z" transform="translate(-304.567 -1354.955)"/>
  </g>
</svg>
